<?xml version="1.0" standalone="no"?>
<!DOCTYPE svg PUBLIC "-//W3C//DTD SVG 20010904//EN"
 "http://www.w3.org/TR/2001/REC-SVG-20010904/DTD/svg10.dtd">
<svg version="1.0" xmlns="http://www.w3.org/2000/svg"
 width="816.000000pt" height="816.000000pt" viewBox="0 0 816.000000 816.000000"
 preserveAspectRatio="xMidYMid meet">
<metadata>
Created by potrace 1.14, written by Peter Selinger 2001-2017
</metadata>
<g transform="translate(0.000000,816.000000) scale(0.100000,-0.100000)"
fill="#000000" stroke="none">
<path d="M2986 6623 c-8 -30 -28 -107 -31 -124 -2 -8 -10 -44 -19 -80 -9 -35
-18 -73 -20 -84 -18 -94 -22 -99 -93 -124 -169 -58 -453 -188 -628 -286 -79
-45 -233 -144 -320 -207 -107 -77 -123 -89 -265 -206 -50 -41 -351 -340 -390
-387 -14 -16 -54 -66 -90 -110 -36 -44 -68 -81 -72 -83 -5 -2 -8 -9 -8 -15 0
-7 -10 -23 -23 -37 -33 -37 -127 -177 -127 -189 0 -6 -4 -11 -8 -11 -5 0 -21
-21 -36 -47 -15 -27 -36 -64 -48 -83 -54 -92 -138 -253 -138 -266 0 -6 -6 -17
-14 -23 -8 -7 -17 -23 -20 -36 -3 -13 -20 -54 -37 -91 -17 -37 -32 -72 -33
-78 -1 -6 -7 -21 -14 -32 -18 -34 -107 -308 -136 -419 -22 -83 -38 -154 -61
-265 -2 -14 -16 -100 -30 -190 -15 -102 -21 -172 -31 -350 -4 -81 -11 -138
-18 -142 -125 -80 -220 -220 -261 -388 -14 -54 -15 -246 -2 -267 3 -5 8 -22
11 -36 6 -36 69 -165 98 -201 95 -121 231 -211 370 -243 18 -5 1635 -8 3593
-8 l3560 0 73 24 c117 38 227 115 307 214 85 105 134 255 129 396 -1 47 -4 93
-7 101 -2 8 -7 31 -11 50 -4 19 -16 54 -27 77 -10 24 -19 47 -19 53 0 5 -3 10
-8 10 -4 0 -13 15 -21 32 -8 18 -54 71 -101 118 -84 82 -87 88 -87 130 0 54
-13 253 -19 295 -2 17 -6 53 -9 80 -3 28 -7 61 -9 75 -2 14 -7 45 -11 70 -3
25 -11 65 -16 90 -6 25 -12 56 -14 70 -2 14 -11 54 -20 90 -9 36 -19 76 -21
90 -9 48 -87 301 -113 365 -5 11 -21 52 -36 90 -72 182 -185 408 -278 560 -53
86 -184 282 -197 295 -3 3 -18 23 -35 45 -16 22 -31 42 -34 45 -4 3 -35 41
-71 85 -160 196 -447 471 -600 575 -12 8 -31 22 -41 31 -11 9 -35 27 -54 40
-19 13 -35 27 -35 32 0 4 -4 7 -9 7 -4 0 -48 26 -97 58 -49 32 -109 70 -134
84 -25 14 -74 42 -110 63 -73 42 -317 160 -350 170 -3 1 -23 9 -44 18 -22 10
-50 20 -63 23 -13 4 -26 10 -29 15 -3 5 -16 9 -29 9 -13 0 -27 5 -30 10 -3 6
-14 10 -24 10 -37 0 -71 25 -81 60 -5 19 -10 43 -10 52 0 9 -5 20 -10 23 -6 4
-8 10 -6 14 5 8 -6 58 -54 239 l-11 42 -1089 0 c-1028 0 -1089 -1 -1094 -17z"/>
</g>
</svg>
