<svg xmlns="http://www.w3.org/2000/svg" viewBox="0 0 101.89 64.09"><defs><style>.cls-1{fill:#d3a146;}.cls-2{fill:#b28335;}.cls-3{fill:#f2c25c;}.cls-4{fill:#f9cc7d;}</style></defs><g id="Warstwa_2" data-name="Warstwa 2"><g id="Warstwa_1-2" data-name="Warstwa 1"><path class="cls-1" d="M95.8,50.07c0,.67,0,1.34,0,2a44.76,44.76,0,0,1-.52,5.09H6.65a42.59,42.59,0,0,1-.52-5.09c0-.66,0-1.33,0-2a44.86,44.86,0,1,1,89.72,0Z"/><path d="M97.36,59.66H4.52l-.34-2.09a47.52,47.52,0,0,1-.55-5.39c0-.69,0-1.4,0-2.11A47.3,47.3,0,0,1,35.93,5.13a47.92,47.92,0,0,1,30,0A47.3,47.3,0,0,1,98.3,50.07c0,.71,0,1.42,0,2.12a45.16,45.16,0,0,1-.56,5.38Zm-88.53-5H93.06c.09-.89.16-1.79.2-2.7,0-.64,0-1.26,0-1.89A42.31,42.31,0,0,0,64.39,9.88a42.89,42.89,0,0,0-26.88,0A42.32,42.32,0,0,0,8.59,50.07c0,.63,0,1.25,0,1.88C8.67,52.86,8.73,53.77,8.83,54.66Z"/><rect class="cls-2" x="6.68" y="46.28" width="87.52" height="7.11"/><path d="M97.36,59.66H4.53l-.35-2.09a47.52,47.52,0,0,1-.55-5.39c0-.69,0-1.4,0-2.11A47.31,47.31,0,0,1,35.93,5.13a47.85,47.85,0,0,1,30,0A47.3,47.3,0,0,1,98.3,50.07c0,.71,0,1.42,0,2.12a47.58,47.58,0,0,1-.55,5.38Zm-88.53-5H93.06c.09-.89.16-1.79.2-2.7,0-.64,0-1.26,0-1.89A42.31,42.31,0,0,0,64.39,9.88a42.89,42.89,0,0,0-26.88,0A42.33,42.33,0,0,0,8.58,50.07c0,.63,0,1.25.05,1.87C8.67,52.86,8.73,53.77,8.83,54.66Z"/><path class="cls-3" d="M99.39,56.25A5.34,5.34,0,0,1,94,61.59H7.86a5.35,5.35,0,1,1,0-10.7H27.64l10-41.61L39.3,2.5H62.59l1.64,6.79,10,41.6H94A5.36,5.36,0,0,1,99.39,56.25Z"/><path d="M94,64.09H7.86a7.85,7.85,0,0,1,0-15.7H25.67L37.34,0H64.56L76.23,48.39H94a7.85,7.85,0,1,1,0,15.7ZM7.86,53.39a2.85,2.85,0,1,0,0,5.7H94a2.85,2.85,0,1,0,0-5.7H72.29L60.63,5H41.27L29.61,53.39Z"/><rect class="cls-4" x="37.13" y="3.69" width="27.46" height="8.36"/><path d="M94,64.09H7.86a7.85,7.85,0,0,1,0-15.7H25.67L37.34,0H64.56L76.23,48.39H94a7.85,7.85,0,1,1,0,15.7ZM7.86,53.39a2.85,2.85,0,1,0,0,5.7H94a2.85,2.85,0,1,0,0-5.7H72.29L60.63,5H41.27L29.61,53.39Z"/></g></g></svg>