<svg xmlns="http://www.w3.org/2000/svg" viewBox="0 0 102.66 102.66"><g id="Warstwa_2" data-name="Warstwa 2"><g id="Warstwa_1-2" data-name="Warstwa 1"><path d="M51.33,0A51.31,51.31,0,0,0,19.09,91.24a51.17,51.17,0,0,0,64.48,0A51.31,51.31,0,0,0,51.33,0ZM75.57,90.81A46.33,46.33,0,1,1,97.66,51.33,46.3,46.3,0,0,1,75.57,90.81Z"/><path d="M35.37,36.81H23.12a6.76,6.76,0,0,0-6.76,6.75v1.36a6.76,6.76,0,0,0,4.32,6.3,6.62,6.62,0,0,0,2.44.46H35.37a6.58,6.58,0,0,0,2.44-.46,6.76,6.76,0,0,0,4.32-6.3V43.56A6.76,6.76,0,0,0,35.37,36.81ZM23.12,46.68a1.76,1.76,0,0,1-1.76-1.76V43.56a1.76,1.76,0,0,1,1.76-1.75H35.37a1.76,1.76,0,0,1,1.76,1.75v1.36a1.76,1.76,0,0,1-1.76,1.76Z"/><path d="M79.54,36.81H67.29a6.76,6.76,0,0,0-6.76,6.75v1.36a6.76,6.76,0,0,0,4.32,6.3,6.58,6.58,0,0,0,2.44.46H79.54A6.62,6.62,0,0,0,82,51.22a6.76,6.76,0,0,0,4.32-6.3V43.56A6.76,6.76,0,0,0,79.54,36.81ZM67.29,46.68a1.76,1.76,0,0,1-1.76-1.76V43.56a1.76,1.76,0,0,1,1.76-1.75H79.54a1.76,1.76,0,0,1,1.76,1.75v1.36a1.76,1.76,0,0,1-1.76,1.76Z"/><path d="M37.81,51.22A10.34,10.34,0,1,0,39.6,57,10.34,10.34,0,0,0,37.81,51.22ZM29.25,62.38A5.35,5.35,0,1,1,34.6,57,5.36,5.36,0,0,1,29.25,62.38Z"/><path d="M82,51.22A10.34,10.34,0,1,0,83.77,57,10.34,10.34,0,0,0,82,51.22ZM73.42,62.38A5.35,5.35,0,1,1,78.77,57,5.36,5.36,0,0,1,73.42,62.38Z"/><path d="M63,70.76a5,5,0,0,0-3.92-2H42.23a4.83,4.83,0,0,0-3.9,2,4.93,4.93,0,0,0-.79,4.36,13.63,13.63,0,0,0,26.24-.19A4.8,4.8,0,0,0,63,70.76ZM50.63,80a8.72,8.72,0,0,1-8.29-6.14H58.89A8.64,8.64,0,0,1,50.63,80Z"/></g></g></svg>