<svg xmlns="http://www.w3.org/2000/svg" viewBox="0 0 120.12 111.63"><g id="Warstwa_2" data-name="Warstwa 2"><g id="Warstwa_1-2" data-name="Warstwa 1"><path d="M76.72,36.7,58.6,0,40.49,36.7,0,42.58,29.3,71.14l-6.92,40.34,36.22-19L70.53,98.7l24.3,12.78L94,106.61c-.2,0-.4,0-.6,0A21.72,21.72,0,0,1,74.17,95l-6.68-3.51L58.6,86.79,29,102.34,34.67,69.4,10.74,46.07l33.07-4.8,14.79-30,14.79,30,33.08,4.8L94,58.2l-5.75,5.61a21.14,21.14,0,0,1,5.13-.62,20.76,20.76,0,0,1,2.51.15l4.36-4.25,16.94-16.51Z"/><path d="M100.27,59.09A26.26,26.26,0,0,0,94,58.2H93.4a26.73,26.73,0,1,0,6.87.9ZM94,106.61c-.2,0-.4,0-.6,0A21.72,21.72,0,0,1,74.17,95a21.5,21.5,0,0,1-2.49-10.06,21.74,21.74,0,0,1,16.59-21.1,21.14,21.14,0,0,1,5.13-.62,20.76,20.76,0,0,1,2.51.15A21.71,21.71,0,0,1,94,106.61Z"/><path d="M95.32,92.7l-3.13-3.13a2.53,2.53,0,0,1-.73-1.66l-.57-13.63a2.49,2.49,0,0,1,2.39-2.6h0a2.49,2.49,0,0,1,2.6,2.39l.5,11.68a2.42,2.42,0,0,0,.73,1.66l1.75,1.75a2.5,2.5,0,0,1,0,3.54h0A2.5,2.5,0,0,1,95.32,92.7Z"/></g></g></svg>