<svg xmlns="http://www.w3.org/2000/svg" viewBox="0 0 590.71 469.45"><defs><style>.cls-1{fill:#1d1d1b;}.cls-2{fill:#f7dcbc;}.cls-3{fill:#7c6248;}.cls-4{fill:#d3a146;}.cls-5{fill:#b28335;}.cls-6{fill:#f2c25c;}.cls-7{fill:#fff;}.cls-8{fill:#f3999b;}.cls-9{fill:#e58589;}.cls-10{fill:#f9cc7d;}.cls-11{fill:#d3a24b;}.cls-12{fill:#a49a5d;}</style></defs><g id="Warstwa_2" data-name="Warstwa 2"><g id="Warstwa_1-2" data-name="Warstwa 1"><path class="cls-1" d="M62.25,403.58c4.6,1.25,7.29,4.47,7.31,8.61s-2.78,7.56-7.25,8.85a13.12,13.12,0,0,1-9.73-.85,72.61,72.61,0,0,1-27-19.58c-8-11.78-4.46,8.9-6.39,13.53-.52,5.92-4.28,9.46-9.69,9.14C3.62,423-.29,419.09,0,412.87c.59-12.3,1.32-24.58,2.29-36.69C3.12,363.38,4.16,350.75,5,338c.5-7.39.9-15.05,1.28-22.59.47-5.52,4.37-9.18,9.57-9.16a9.36,9.36,0,0,1,9.91,9c.24,2.7-.05,5.45-.08,9,25.42-16.81,62.28-1.16,59.32,30.49-2.27,23.77-25.88,37.53-46.57,31.75C45.28,394.52,52.53,401,62.25,403.58Zm-15.7-32.45c11.82.25,18.17-7.95,19.52-16.53,4.26-27.19-35.3-23.93-38.19-2.93C26.54,361.06,33.13,370.89,46.55,371.13Z"/><path class="cls-1" d="M103.18,452.58c-22.38-17.91-22.91-59.38-6.05-79.79,14.61-17.51,38.18-17,53.58-2.77,29.5,27.52,16.33,87.56-23,90.46A37,37,0,0,1,103.18,452.58ZM105,409.92c0,1.58.13,3.16.26,4.74,5.53,45.82,45.56,29.62,42.53-7.51C144.53,366.73,104.37,367.39,105,409.92Z"/><path class="cls-1" d="M200.51,464.31a9.27,9.27,0,0,1-8.95,5.13c-3.95-.39-7.38-2.37-8.69-6.45a17.56,17.56,0,0,1-.92-5.26c-1.06-21.73-1.85-43.72-2.77-65.44-.39-6.19-1.19-12.38-2-18.57-.93-6.18,1.31-10.4,6.31-11.85a10,10,0,0,1,12.38,6.59c.26.66.53,1.31.66,1.71,17.51-8.16,41.61-16.85,53.85.92A19.7,19.7,0,0,1,253,389c-2.89,8.42-9.61,15.53-15.27,21.72a21.67,21.67,0,0,1,2.37,1.45c2.11,1.71,4.48,3,6.45,5,13,12.64,10.4,31.6-5.26,40.69-7.77,4.34-16.07,5.4-24.63,4.74-4.74-.27-9.47-1.06-14.87-1.58A24.8,24.8,0,0,1,200.51,464.31Zm20.93-66.49a32.85,32.85,0,0,0,12.25-12.51c3.55-6.58-7.37-7.24-10.8-6.32-6.71,1.32-12.37,4.74-17.51,9.09-7.37,6.58-6.19,10.92-6.19,18.82C207.23,404.4,214.73,402,221.44,397.82Zm-20.67,39a3.84,3.84,0,0,0,1.45,2.5c6.45,5.53,20.67,7,28.18,3.3,5.79-3,6.71-8.83,1.84-12.91-9.08-7.63-21.72-5.79-32.12-3.95C200.25,429.55,200.38,433.11,200.77,436.79Z"/><path class="cls-1" d="M356.73,428.44a9.27,9.27,0,0,1-9,5.14c-3.95-.4-7.38-2.37-8.69-6.45a17.62,17.62,0,0,1-.92-5.27c-1.06-21.72-1.85-43.71-2.77-65.44-.39-6.18-1.18-12.37-2-18.56s1.31-10.4,6.32-11.85a9.93,9.93,0,0,1,12.37,6.58c.27.66.53,1.32.66,1.71,17.51-8.16,41.61-16.85,53.85.92,3.69,5.54,4.74,11.46,2.63,17.91-2.89,8.43-9.61,15.54-15.27,21.73a22.81,22.81,0,0,1,2.37,1.44c2.11,1.72,4.48,3,6.45,5,13,12.64,10.4,31.6-5.26,40.68-7.77,4.35-16.07,5.4-24.62,4.74-4.74-.26-9.48-1.05-14.88-1.58A24.27,24.27,0,0,1,356.73,428.44ZM377.66,362a32.85,32.85,0,0,0,12.25-12.51c3.55-6.58-7.37-7.24-10.8-6.31-6.71,1.31-12.37,4.74-17.51,9.08-7.37,6.58-6.19,10.93-6.19,18.83C363.45,368.54,371,366.17,377.66,362Zm-20.67,39a3.84,3.84,0,0,0,1.45,2.5c6.45,5.53,20.67,7,28.18,3.29,5.79-3,6.71-8.82,1.84-12.91-9.08-7.63-21.72-5.79-32.12-3.94C356.47,393.69,356.6,397.24,357,400.93Z"/><path class="cls-1" d="M440.59,404.89c-22.39-17.9-22.91-59.38-6.06-79.78,14.62-17.52,38.18-17,53.59-2.77,29.49,27.52,16.33,87.56-23,90.45A36.9,36.9,0,0,1,440.59,404.89Zm1.84-42.66c0,1.58.13,3.16.26,4.74,5.53,45.82,45.56,29.63,42.53-7.5C481.93,319.05,441.77,319.71,442.43,362.23Z"/><path class="cls-1" d="M541.9,373.75A9.28,9.28,0,0,1,534,380.4c-4,.32-7.68-1-9.71-4.79a17.88,17.88,0,0,1-1.84-5c-4.92-21.19-9.63-42.68-14.42-63.89-1.5-6-3.38-12-5.26-17.91s-.57-10.47,4.09-12.79a9.94,9.94,0,0,1,13.36,4.26c.38.6.75,1.2.95,1.57,15.77-11.16,37.93-24,53.15-8.72a19.7,19.7,0,0,1,5.79,17.15c-1.34,8.8-6.68,17-11.14,24.1a22.9,22.9,0,0,1,2.59,1c2.38,1.31,4.95,2.18,7.24,3.77,15.09,10.11,15.89,29.23,2.09,41-6.86,5.67-14.84,8.19-23.37,9.07-4.71.59-9.52.66-14.92,1.1A24.91,24.91,0,0,1,541.9,373.75Zm8.71-69.16a32.82,32.82,0,0,0,9.81-14.5c2.32-7.11-8.55-5.81-11.75-4.29-6.37,2.5-11.33,6.88-15.61,12.07-6.07,7.8-4.13,11.86-2.72,19.63C537.8,313.6,544.76,309.93,550.61,304.59Zm-13.37,42a3.84,3.84,0,0,0,1.87,2.2c7.34,4.29,21.59,3.17,28.31-1.8,5.16-4,5-9.88-.49-13-10.31-5.88-22.41-1.81-32.32,1.86C535.43,339.6,536.19,343.07,537.24,346.63Z"/><ellipse class="cls-2" cx="263.34" cy="205.4" rx="14.7" ry="23.65" transform="translate(-11.39 15.5) rotate(-3.3)"/><path d="M264.18,234.57c-5.52,0-10.87-3.13-14.78-8.68a37.73,37.73,0,0,1-6.26-19.32c-.94-16.34,7.19-29.65,18.52-30.31,5.83-.29,11.51,2.82,15.62,8.66a37.57,37.57,0,0,1,6.26,19.32h0a37.72,37.72,0,0,1-4,19.91c-3.41,6.27-8.7,10.06-14.52,10.39Q264.6,234.57,264.18,234.57Zm-1.68-47.26h-.2c-4.32.25-8.7,8.26-8.11,18.61a27,27,0,0,0,4.26,13.58c1.86,2.64,4,4.09,5.93,4s3.89-1.8,5.44-4.64a26.86,26.86,0,0,0,2.67-14h0a26.82,26.82,0,0,0-4.26-13.58C266.44,188.75,264.36,187.31,262.5,187.31Z"/><ellipse class="cls-2" cx="55.67" cy="243.14" rx="14.7" ry="23.65" transform="matrix(0.95, -0.3, 0.3, 0.95, -69.77, 27.55)"/><path d="M59.91,271.68c-9.58,0-19.35-9-23.56-22.53h0a37.67,37.67,0,0,1-.93-20.29c1.79-6.9,6-11.86,11.57-13.59,10.84-3.37,23.13,6.22,28,21.85s.19,30.51-10.64,33.88A14.73,14.73,0,0,1,59.91,271.68Zm-13-25.82c3.08,9.9,10,15.86,14.14,14.57s6.44-10.12,3.36-20-10-15.87-14.14-14.57c-1.82.57-3.34,2.69-4.15,5.81a26.94,26.94,0,0,0,.79,14.21Z"/><path class="cls-2" d="M256.7,197.83l3.44,18.93A99.21,99.21,0,0,1,64.92,252.23L61.48,233.3A99.21,99.21,0,0,1,215.57,134a99.19,99.19,0,0,1,41.13,63.82Z"/><path d="M162.48,339.24a104.91,104.91,0,0,1-103-86L56,234.29a104.74,104.74,0,1,1,206.11-37.45h0l3.44,18.93a104.73,104.73,0,0,1-84.32,121.77A105.44,105.44,0,0,1,162.48,339.24ZM159.3,121.87A93.63,93.63,0,0,0,66.92,232.31l3.44,18.93a93.67,93.67,0,0,0,184.33-33.49l-3.44-18.93a93.73,93.73,0,0,0-91.95-76.95Z"/><path class="cls-3" d="M228.33,144.52c-11.64,8.86-28,16.15-46.76,20.06-5.22,19.13-32.72,37.58-68.29,44-19.7,3.58-38.37,2.85-53.09-1.23a99.23,99.23,0,0,1,168.14-62.88Z"/><path d="M88.3,216.46a111.62,111.62,0,0,1-29.59-3.72l-4.41-1.22.38-4.57a104.79,104.79,0,0,1,177.52-66.4l4.59,4.48-5.11,3.89c-12,9.12-28.16,16.31-45.85,20.39-7.86,20.28-36.55,38.4-71.56,44.77A146.22,146.22,0,0,1,88.3,216.46ZM66.21,203.19c13.62,2.94,29.78,3,46.08,0,32.32-5.87,59.21-22.72,63.93-40.06l.9-3.27,3.32-.69c14.68-3,28.28-8.38,39-15.22-2.26-1.9-4.62-3.7-7.05-5.38A93.7,93.7,0,0,0,66.21,203.19Z"/><rect class="cls-3" x="104.39" y="222.46" width="45.98" height="21.86" rx="4.26" transform="translate(-39.67 26.53) rotate(-10.3)"/><path d="M114.29,252.26A15,15,0,0,1,99.58,240L99,237a15,15,0,0,1,12-17.39l26.7-4.85a15,15,0,0,1,17.39,12l.54,3a15,15,0,0,1-12,17.39L117,252A15.26,15.26,0,0,1,114.29,252.26Zm26.17-26.66a4.23,4.23,0,0,0-.7.06l-26.7,4.85a3.89,3.89,0,0,0-3.12,4.52l.53,3a3.89,3.89,0,0,0,4.52,3.13l26.7-4.85a3.9,3.9,0,0,0,3.13-4.52l-.54-3A3.89,3.89,0,0,0,140.46,225.6Z"/><path class="cls-4" d="M245.7,133.38c.27,1.47.51,2.92.7,4.37a96.86,96.86,0,0,1,.88,11.31l-193,35.06a96.29,96.29,0,0,1-3.16-10.89c-.33-1.43-.62-2.87-.88-4.34A99.32,99.32,0,1,1,245.7,133.38Z"/><path d="M50.64,190.41,49.07,186a102.07,102.07,0,0,1-3.34-11.52c-.34-1.49-.65-3-.93-4.58a104.86,104.86,0,1,1,206.35-37.49h0c.28,1.56.53,3.1.74,4.64a103.11,103.11,0,0,1,.92,11.93l.09,4.7ZM148.1,57.32A93.72,93.72,0,0,0,55.69,167.9c.25,1.38.52,2.73.83,4.08.45,2,1,3.92,1.53,5.83l183.48-33.33c-.14-2-.35-4-.62-6-.18-1.39-.41-2.75-.66-4.13A93.61,93.61,0,0,0,148.1,57.32Z"/><rect class="cls-5" x="49.89" y="142.95" width="193.79" height="15.74" transform="translate(-24.6 28.67) rotate(-10.3)"/><path d="M252.9,153.66,50.65,190.41,49.07,186a99.43,99.43,0,0,1-3.33-11.52c-.35-1.49-.66-3-.94-4.58A104.79,104.79,0,0,1,97.47,59.17,106.15,106.15,0,0,1,162.92,47.3a104.76,104.76,0,0,1,88.23,85.09c.28,1.56.53,3.1.74,4.64a102.77,102.77,0,0,1,.92,11.93ZM58.05,177.81l183.48-33.34q-.21-3-.62-6c-.18-1.39-.41-2.75-.66-4.13a93.69,93.69,0,0,0-78.9-76.11,95,95,0,0,0-58.56,10.62,93.74,93.74,0,0,0-47.1,99c.25,1.38.52,2.73.83,4.07C57,174,57.48,175.9,58.05,177.81Z"/><path class="cls-6" d="M256,145.43a11.83,11.83,0,0,1-9.53,13.76L58.67,193.3A11.85,11.85,0,0,1,54.43,170l43.1-7.83,5.37-94.63.89-15.42,50.74-9.22L160.79,57l38.31,86.67,43.09-7.83A11.85,11.85,0,0,1,256,145.43Z"/><path d="M56.51,199a17.39,17.39,0,0,1-3.07-34.49l38.81-7,6.26-110,59.31-10.78L202.4,137.48l38.8-7a17.37,17.37,0,0,1,20.2,14h0a17.35,17.35,0,0,1-14,20.19L59.66,198.75A17.73,17.73,0,0,1,56.51,199ZM109.06,56.78l-6.25,110.05-47.39,8.61a6.31,6.31,0,1,0,2.26,12.42l187.76-34.12a6.3,6.3,0,0,0,5.07-7.32h0a6.33,6.33,0,0,0-7.33-5.1l-47.38,8.61L151.23,49.12Z"/><rect class="cls-3" x="186.61" y="206.35" width="45.98" height="21.86" rx="4.26" transform="translate(-35.47 40.97) rotate(-10.3)"/><path d="M196.49,236.15a15,15,0,0,1-14.68-12.29l-.54-3a15,15,0,0,1,12-17.4l26.7-4.85a15,15,0,0,1,17.39,12l.54,3a15,15,0,0,1-12,17.39l-26.7,4.85A14.69,14.69,0,0,1,196.49,236.15Zm26.19-26.67a3.23,3.23,0,0,0-.69.07l-26.7,4.85a3.89,3.89,0,0,0-3.13,4.52l.54,3a3.89,3.89,0,0,0,4.52,3.13l26.7-4.85a3.89,3.89,0,0,0,3.13-4.52l-.54-3A3.9,3.9,0,0,0,222.68,209.48Z"/><circle class="cls-7" cx="132.44" cy="261.25" r="17.38"/><path d="M132.39,284.18a22.92,22.92,0,1,1,22.6-27h0a22.92,22.92,0,0,1-18.45,26.64A23.38,23.38,0,0,1,132.39,284.18Zm.06-34.78a11.85,11.85,0,1,0,11.65,9.73h0A11.87,11.87,0,0,0,132.45,249.4Z"/><circle class="cls-7" cx="214.66" cy="245.14" r="17.38"/><path d="M214.61,268.06a22.92,22.92,0,1,1,22.6-27h0a22.92,22.92,0,0,1-18.45,26.65A23.28,23.28,0,0,1,214.61,268.06Zm.06-34.77a12,12,0,0,0-2.13.19,11.86,11.86,0,1,0,2.13-.19Z"/><path class="cls-8" d="M191.22,285.1a5.27,5.27,0,0,1,6,5.82,24.66,24.66,0,0,1-47,6.43,5.34,5.34,0,0,1,4.15-7.48Z"/><rect class="cls-7" x="153.58" y="290.95" width="40.07" height="5.58" transform="translate(-36.24 24.69) rotate(-7.37)"/><ellipse class="cls-9" cx="175.22" cy="306.72" rx="12.97" ry="4.98" transform="translate(-37.89 25.01) rotate(-7.37)"/><path d="M176.64,317.42a30.33,30.33,0,0,1-31.54-17.86,10.84,10.84,0,0,1,.5-9.79,10.7,10.7,0,0,1,8-5.39l36.9-4.77a11,11,0,0,1,9.16,3.15,10.54,10.54,0,0,1,3,8.93A30.25,30.25,0,0,1,176.64,317.42Zm-21.37-22.09a19.16,19.16,0,0,0,36.35-4.7Z"/><rect class="cls-10" x="100.69" y="49.97" width="60.8" height="18.51" transform="translate(-8.48 24.39) rotate(-10.3)"/><rect class="cls-11" x="47.64" y="166.54" width="207.45" height="7.1" transform="translate(-27.97 29.8) rotate(-10.3)"/><path d="M247.42,164.63,59.66,198.75a17.41,17.41,0,0,1-20.22-14,17.42,17.42,0,0,1,14-20.23l38.81-7,6.26-110,59.31-10.78L202.4,137.48l38.8-7a17.38,17.38,0,1,1,6.22,34.2Zm-192,10.81a6.31,6.31,0,1,0,2.26,12.42l187.76-34.12a6.3,6.3,0,0,0,5.07-7.32,6.32,6.32,0,0,0-7.33-5.1l-47.38,8.61L151.23,49.12l-42.17,7.66-6.25,110.05Z"/><ellipse class="cls-2" cx="319.52" cy="176.94" rx="14.7" ry="23.65" transform="translate(-4.47 8.32) rotate(-1.48)"/><path d="M319.88,206.13c-11.16,0-20.17-12.49-20.59-28.66h0c-.42-16.36,8.13-29.41,19.47-29.7s20.56,12.29,21,28.65-8.13,29.41-19.47,29.7Zm-9.52-28.95c.26,10.29,5.23,17.88,9.53,17.88h.1c4.32-.11,8.95-8,8.69-18.34s-5.24-17.88-9.54-17.88h-.09c-4.33.11-9,8-8.69,18.35Z"/><ellipse class="cls-2" cx="529.61" cy="197.23" rx="23.65" ry="14.7" transform="translate(222.3 671.52) rotate(-77.49)"/><path d="M526.51,226.08a14.7,14.7,0,0,1-3.22-.35c-11.08-2.46-17-16.9-13.43-32.88a37.7,37.7,0,0,1,9.27-18.07c5-5.1,11.12-7.3,16.81-6s10.3,5.85,12.66,12.59a37.64,37.64,0,0,1,.76,20.29h0C546.16,216.05,536.51,226.08,526.51,226.08Zm6.21-46.62c-1.71,0-3.73,1.08-5.68,3.07a27,27,0,0,0-6.38,12.72c-2.24,10.12.8,18.73,5,19.67s10.63-5.58,12.88-15.7h0a27,27,0,0,0-.4-14.23c-1.07-3-2.76-5-4.62-5.44A3.68,3.68,0,0,0,532.72,179.46Z"/><path class="cls-2" d="M325.51,168.84,323.66,188a99.2,99.2,0,0,0,197.49,19.08L523,187.92a99.2,99.2,0,1,0-197.49-19.08Z"/><path d="M422.59,302.27q-5.11,0-10.26-.49a104.74,104.74,0,0,1-94.18-114.32L320,168.31a103.94,103.94,0,0,1,25.15-58.59,105.05,105.05,0,0,1,12.5-12.18,104.71,104.71,0,0,1,170.86,90.91l-1.85,19.15a104.75,104.75,0,0,1-104.07,94.67Zm1.48-217.56A93.66,93.66,0,0,0,331,169.37l-1.85,19.16a93.67,93.67,0,0,0,186.47,18l1.85-19.16A93.57,93.57,0,0,0,433.25,85.15C430.18,84.85,427.11,84.71,424.07,84.71Z"/><path class="cls-12" d="M349.33,113.35c12.34,7.87,29.21,13.77,48.27,16.1,6.79,18.63,35.73,34.72,71.73,38.2,19.92,1.92,38.47-.36,52.79-5.65a99.22,99.22,0,0,0-172.79-48.65Z"/><path d="M483.15,173.86c-4.73,0-9.53-.23-14.36-.7-35.42-3.42-65.52-19.09-75-38.64-18-2.6-34.69-8.41-47.4-16.5l-5.41-3.45,4.21-4.85a105.05,105.05,0,0,1,12.5-12.18A104.77,104.77,0,0,1,527.58,161.1l.76,4.51L524,167.2C512.18,171.58,498,173.86,483.15,173.86ZM358.12,112C369.4,118,383.39,122.13,398.28,124l3.36.41,1.17,3.19c6.15,16.89,34.35,31.43,67.05,34.59,16.49,1.59,32.59.23,45.92-3.84a93.71,93.71,0,0,0-151.1-52.21C362.4,108,360.21,110,358.12,112Z"/><path class="cls-4" d="M331.09,103.7c-.14,1.49-.26,3-.33,4.42a95.23,95.23,0,0,0,.07,11.34l195.24,18.85a95.12,95.12,0,0,0,2.23-11.12c.22-1.45.38-2.91.53-4.39a99.33,99.33,0,1,0-197.74-19.1Z"/><path d="M530.22,144.28,325.61,124.51l-.31-4.69a104.1,104.1,0,0,1-.07-12c.08-1.53.2-3.08.35-4.66h0a104.87,104.87,0,1,1,208.76,20.16c-.16,1.58-.33,3.12-.56,4.67a102.3,102.3,0,0,1-2.36,11.73Zm-194-29.87,185.62,17.93q.62-2.93,1-5.92c.21-1.39.36-2.76.5-4.15a93.79,93.79,0,1,0-186.72-18h0c-.13,1.39-.24,2.77-.31,4.15C336.18,110.4,336.14,112.42,336.17,114.41Z"/><rect class="cls-5" x="334.22" y="104.97" width="193.79" height="15.74" transform="translate(849.38 266.6) rotate(-174.48)"/><path d="M325.3,119.82a103.8,103.8,0,0,1-.07-12c.08-1.55.2-3.1.35-4.68A104.77,104.77,0,0,1,406.4,11a106.17,106.17,0,0,1,66.22,6.37,104.8,104.8,0,0,1,61.72,105.94c-.16,1.58-.33,3.12-.55,4.64a103.69,103.69,0,0,1-2.37,11.76l-1.2,4.54L325.61,124.51Zm197.53,6.57c.2-1.36.35-2.73.49-4.12a93.74,93.74,0,0,0-55.2-94.76,95,95,0,0,0-59.23-5.7,93.72,93.72,0,0,0-72.29,82.42c-.13,1.39-.24,2.77-.31,4.18q-.17,3-.12,6l185.62,17.93C522.2,130.39,522.54,128.4,522.83,126.39Z"/><path class="cls-6" d="M321.88,116.56a11.82,11.82,0,0,0,10.64,12.92l190,18.34a11.84,11.84,0,1,0,2.28-23.58L481.15,120,467.91,26.18l-2.17-15.29-51.33-5-5.06,14.61-31,89.57-43.6-4.21A11.83,11.83,0,0,0,321.88,116.56Z"/><path d="M523.64,153.42a16.28,16.28,0,0,1-1.7-.09L332,135a17.38,17.38,0,1,1,3.34-34.6l39.25,3.79L410.6,0l60,5.8L486,114.94l39.26,3.79a17.39,17.39,0,0,1-1.64,34.69Zm-190-42a6.31,6.31,0,0,0-6.27,5.71h0a6.3,6.3,0,0,0,5.67,6.88l190,18.34a6.31,6.31,0,1,0,1.21-12.56l-47.93-4.63L460.87,16l-42.66-4.12L382.2,116l-47.94-4.64Z"/><path class="cls-8" d="M393.08,251.43A5.26,5.26,0,0,0,388,258a24.65,24.65,0,0,0,47.44-.25,5.33,5.33,0,0,0-5.16-6.81Z"/><rect class="cls-7" x="391.7" y="254.72" width="40.07" height="5.58" transform="translate(826.63 509.89) rotate(179.29)"/><ellipse class="cls-9" cx="411.96" cy="270.58" rx="12.97" ry="4.98" transform="translate(-3.33 5.14) rotate(-0.71)"/><path d="M382.69,259.56a10.53,10.53,0,0,1,1.7-9.26,11,11,0,0,1,8.63-4.41l37.2-.46a10.71,10.71,0,0,1,8.69,4.21,10.88,10.88,0,0,1,1.87,9.62,30.18,30.18,0,0,1-58.09.3Zm10.78-2.6a19.16,19.16,0,0,0,36.65-.46Z"/><rect class="cls-10" x="408.72" y="11" width="60.8" height="18.51" transform="translate(874.26 82.63) rotate(-174.48)"/><rect class="cls-11" x="324.43" y="128.87" width="207.45" height="7.1" transform="translate(841.6 305.39) rotate(-174.48)"/><path d="M320.25,128.75a17.39,17.39,0,0,1,15.08-28.36l39.25,3.79L410.6,0l60,5.8L486,114.94l39.26,3.79a17.38,17.38,0,1,1-3.34,34.6L332,135A17.25,17.25,0,0,1,320.25,128.75Zm156-3.63L460.87,16l-42.66-4.12L382.2,116l-47.94-4.63A6.31,6.31,0,1,0,333.05,124l190,18.34a6.31,6.31,0,1,0,1.22-12.56Z"/><rect class="cls-12" x="429.67" y="184.66" width="45.98" height="21.86" rx="4.26" transform="translate(885.94 431.01) rotate(-174.85)"/><path d="M466.05,213.27c-.45,0-.9,0-1.36-.07l-27-2.43a15,15,0,0,1-13.56-16.24l.27-3A15,15,0,0,1,440.62,178l27,2.44a15,15,0,0,1,13.55,16.24l-.27,3A15,15,0,0,1,466.05,213.27Zm-27.39-13.53,27,2.44a3.88,3.88,0,0,0,4.22-3.53l.27-3a3.9,3.9,0,0,0-3.52-4.22l-27-2.43a3.89,3.89,0,0,0-4.22,3.52l-.27,3a3.89,3.89,0,0,0,3.52,4.22Z"/><rect class="cls-12" x="349.58" y="177.44" width="45.98" height="21.86" rx="4.26" transform="translate(726.72 409.42) rotate(-174.85)"/><path d="M386,206.05c-.45,0-.91,0-1.37-.06l-27-2.44A15,15,0,0,1,344,187.31l.27-3a15,15,0,0,1,16.24-13.56l27,2.44a15,15,0,0,1,13.55,16.24l-.27,3A15,15,0,0,1,386,206.05Zm-26.78-24.29a3.9,3.9,0,0,0-3.87,3.54l-.27,3a3.89,3.89,0,0,0,3.52,4.23l27,2.43a3.83,3.83,0,0,0,2.83-.89,3.87,3.87,0,0,0,1.39-2.63l.27-3a3.89,3.89,0,0,0-3.53-4.22l-27-2.44Z"/><circle class="cls-7" cx="450.12" cy="223.79" r="17.38"/><path d="M450.14,246.71c-.69,0-1.38,0-2.08-.1a22.84,22.84,0,1,1,2.08.1Zm0-34.77a11.87,11.87,0,1,0,1.08.05A9.76,9.76,0,0,0,450.1,211.94Z"/><circle class="cls-7" cx="370.02" cy="216.57" r="17.38"/><path d="M370.06,239.49c-.69,0-1.39,0-2.09-.09a23,23,0,0,1-20.77-24.89h0a22.92,22.92,0,1,1,22.86,25Zm-11.84-24a11.84,11.84,0,1,0,4.21-8,11.87,11.87,0,0,0-4.21,8Z"/><path class="cls-1" d="M293.42,395.27a74.47,74.47,0,0,0,9.46-1.42,29.1,29.1,0,0,1,9.81-.45,6.52,6.52,0,0,1,4.78,4.91,5.32,5.32,0,0,1-2.19,5.88,38.47,38.47,0,0,1-11.89,2.28,63.85,63.85,0,0,0-12,1.53q-8.16,1.88-12.17,1c-2.66-.58-4.46-1.54-5.38-2.89a5.08,5.08,0,0,1-.73-4.43,5.8,5.8,0,0,1,2.09-3.4,23.34,23.34,0,0,1,8.93-2A56.81,56.81,0,0,0,293.42,395.27Z"/></g></g></svg>