<svg xmlns="http://www.w3.org/2000/svg" viewBox="0 0 637.85 126.57"><defs><style>.cls-1{fill:#fff;}</style></defs><g id="Warstwa_2" data-name="Warstwa 2"><g id="Warstwa_1-2" data-name="Warstwa 1"><path class="cls-1" d="M62.25,97.38c4.6,1.25,7.29,4.47,7.31,8.61s-2.78,7.56-7.25,8.86a13.17,13.17,0,0,1-9.73-.86,72.7,72.7,0,0,1-27-19.57c-8-11.79-4.46,8.89-6.39,13.52-.52,5.92-4.28,9.46-9.69,9.14-5.83-.25-9.74-4.19-9.43-10.41C.61,94.37,1.34,82.09,2.31,70,3.12,57.18,4.16,44.55,5,31.75c.5-7.39.9-15,1.28-22.59C6.72,3.64,10.62,0,15.82,0a9.37,9.37,0,0,1,9.91,9c.24,2.7-.05,5.45-.08,9.05C51.07,1.27,87.93,16.91,85,48.57,82.7,72.33,59.09,86.09,38.4,80.31,45.28,88.32,52.53,94.79,62.25,97.38ZM46.55,64.93c11.82.25,18.17-8,19.52-16.53,4.26-27.19-35.3-23.93-38.19-2.93C26.54,54.86,33.13,64.69,46.55,64.93Z"/><path class="cls-1" d="M481,95.37C458.59,77.46,458.07,36,474.92,15.58c14.62-17.51,38.18-17,53.59-2.76,29.49,27.51,16.32,87.55-23,90.45A37,37,0,0,1,481,95.37Zm1.84-42.66c0,1.58.13,3.16.26,4.74,5.53,45.82,45.56,29.62,42.53-7.5C522.32,9.53,482.16,10.18,482.82,52.71Z"/><path class="cls-1" d="M117.28,107.52c-22.39-17.91-22.91-59.38-6.06-79.79,14.61-17.51,38.18-17,53.59-2.77,29.49,27.52,16.32,87.56-23,90.46A37,37,0,0,1,117.28,107.52Zm1.84-42.66c0,1.58.13,3.16.26,4.74,5.53,45.82,45.56,29.62,42.53-7.51C158.62,21.67,118.46,22.33,119.12,64.86Z"/><path class="cls-1" d="M577,119a9.28,9.28,0,0,1-9.37,4.31c-3.9-.75-7.14-3-8.08-7.21a17.9,17.9,0,0,1-.45-5.33c.9-21.73,2.09-43.7,3.12-65.42.16-6.2-.07-12.43-.3-18.67s2.25-10.24,7.36-11.23a10,10,0,0,1,11.74,7.67c.2.68.4,1.36.5,1.76,18.17-6.56,43-13.05,53.55,5.75,3.17,5.84,3.69,11.84,1,18.07-3.64,8.13-11,14.61-17.16,20.27a23.56,23.56,0,0,1,2.23,1.65c1.95,1.9,4.19,3.42,6,5.57,11.85,13.75,7.52,32.4-8.9,40-8.12,3.63-16.48,3.94-24.94,2.51-4.7-.68-9.35-1.89-14.68-2.9A24.62,24.62,0,0,1,577,119Zm26.82-64.35a32.78,32.78,0,0,0,13.32-11.36c4.13-6.23-6.7-7.87-10.19-7.26-6.8.71-12.75,3.61-18.25,7.48-7.94,5.89-7.15,10.33-7.86,18.19C589.11,60,596.79,58.29,603.86,54.69Zm-24.08,37A3.8,3.8,0,0,0,581,94.27c5.93,6.09,20,8.81,27.77,5.81,6-2.5,7.48-8.18,3-12.69-8.36-8.41-21.11-7.71-31.64-6.81C579.9,84.39,579.71,88,579.78,91.65Z"/><path class="cls-1" d="M395.57,121.43a9.27,9.27,0,0,1-8.95,5.14c-3.95-.4-7.37-2.37-8.69-6.45a17.68,17.68,0,0,1-.92-5.27c-1.06-21.72-1.85-43.71-2.77-65.44-.39-6.18-1.18-12.37-2-18.56s1.31-10.4,6.32-11.85A9.93,9.93,0,0,1,391,25.58c.27.66.53,1.32.66,1.71,17.51-8.16,41.61-16.85,53.85.92a19.74,19.74,0,0,1,2.64,17.91c-2.9,8.43-9.62,15.54-15.28,21.73a22.81,22.81,0,0,1,2.37,1.44c2.11,1.72,4.48,3,6.45,5,13,12.64,10.41,31.6-5.26,40.68-7.77,4.35-16.07,5.4-24.62,4.74-4.74-.26-9.48-1-14.88-1.58A24.27,24.27,0,0,1,395.57,121.43Zm20.94-66.49a32.9,32.9,0,0,0,12.24-12.51c3.56-6.58-7.37-7.24-10.8-6.31-6.71,1.31-12.37,4.74-17.51,9.08-7.37,6.58-6.19,10.93-6.19,18.83C402.29,61.53,409.79,59.16,416.51,54.94Zm-20.67,39a3.82,3.82,0,0,0,1.44,2.5c6.45,5.53,20.67,7,28.18,3.29,5.79-3,6.71-8.82,1.84-12.91-9.08-7.63-21.72-5.79-32.12-3.94C395.31,86.68,395.44,90.23,395.84,93.92Z"/><path class="cls-1" d="M218.66,112.4a9.24,9.24,0,0,1-8.95,5.13c-4-.39-7.38-2.37-8.69-6.45a17.56,17.56,0,0,1-.92-5.26c-1.06-21.73-1.85-43.72-2.77-65.44-.39-6.19-1.18-12.38-2-18.56s1.31-10.41,6.32-11.85a9.93,9.93,0,0,1,12.37,6.58c.27.66.53,1.31.66,1.71,17.51-8.16,41.61-16.85,53.85.92a19.73,19.73,0,0,1,2.64,17.91c-2.9,8.42-9.62,15.53-15.28,21.72a21.67,21.67,0,0,1,2.37,1.45c2.11,1.71,4.48,3,6.45,5,13,12.63,10.41,31.6-5.26,40.68-7.77,4.34-16.07,5.4-24.62,4.74-4.74-.26-9.48-1-14.88-1.58A24.8,24.8,0,0,1,218.66,112.4ZM239.6,45.91A32.9,32.9,0,0,0,251.84,33.4c3.56-6.58-7.37-7.24-10.8-6.32-6.71,1.32-12.37,4.74-17.51,9.09-7.37,6.58-6.19,10.93-6.19,18.82C225.38,52.49,232.88,50.12,239.6,45.91Zm-20.67,39a3.8,3.8,0,0,0,1.44,2.5c6.45,5.53,20.67,7,28.18,3.3,5.79-3,6.71-8.83,1.84-12.91-9.08-7.63-21.72-5.79-32.12-4C218.4,77.64,218.53,81.2,218.93,84.88Z"/><path class="cls-1" d="M321.73,60.86a99.33,99.33,0,0,0,13.21.7,40.66,40.66,0,0,1,13.42,2.13q5,2.82,5.11,8a7.31,7.31,0,0,1-4.6,7.35,53.22,53.22,0,0,1-16.75-.22,88.37,88.37,0,0,0-16.68-1.27q-11.6.27-16.78-2t-6.5-5.41a7,7,0,0,1,.26-6.22,7.92,7.92,0,0,1,3.77-4,32.63,32.63,0,0,1,12.66-.23A78.44,78.44,0,0,0,321.73,60.86Z"/></g></g></svg>